<svg width="140" height="106" viewBox="0 0 140 106" fill="none" xmlns="http://www.w3.org/2000/svg">
<path fill-rule="evenodd" clip-rule="evenodd" d="M132.756 0.362601C130.96 0.829171 128.898 1.36501 127.775 2.88517C126.783 4.22782 125.805 5.73283 124.921 7.16638C122.785 10.6268 121.605 14.0282 121.605 18.2184C121.605 20.6453 121.765 22.855 122.57 25.1289C123.691 28.2917 127.738 29.7091 130.377 30.62C139.888 33.9031 142.08 6.66068 135.581 1.25644L134.07 0C133.664 0.126709 133.219 0.242355 132.756 0.362601ZM55.3873 8.0948C49.4438 10.9129 43.4994 13.7314 37.4959 16.3802C30.88 19.2991 24.7145 23.2032 19.0288 27.9674C10.4084 35.1905 0.988013 46.9246 0.0580991 59.5181C-0.636095 68.9192 5.00113 75.1575 11.0544 80.8776C23.1895 92.3447 41.0023 92.4522 56.3654 92.5449C57.0335 92.5489 57.6971 92.5529 58.3553 92.5578C70.054 92.6451 81.6578 93.1143 93.3286 93.5863C94.4432 93.6313 95.5584 93.6764 96.6744 93.7212C97.4 93.7503 98.1434 93.7922 98.8974 93.8347C102.009 94.0101 105.301 94.1956 108.258 93.5351C112.322 92.6274 114.384 89.1263 116.191 85.2519C119.369 78.4374 119.888 70.5465 119.842 63.0082C119.794 55.1174 119.38 47.0908 118.373 39.2754C118.306 38.7539 118.245 38.1965 118.181 37.619C117.93 35.3313 117.643 32.7291 116.82 30.806C116.438 29.9136 115.847 29.1528 115.255 28.3905C114.757 27.7494 114.258 27.1073 113.882 26.3852C111.571 21.9423 107.372 19.6281 103.306 17.5668C102.309 17.0616 101.356 16.5045 100.409 15.9507C98.7607 14.9867 97.129 14.0326 95.3104 13.3787C93.3227 12.6639 91.3277 11.9787 89.3341 11.2941C85.6585 10.0317 81.9875 8.77098 78.3752 7.32912C77.8944 7.13719 77.3947 6.86021 76.8846 6.57743C75.8829 6.02213 74.8408 5.44446 73.8214 5.44446C72.8074 5.44446 71.5881 5.11727 70.6107 4.81624C69.5755 4.49743 68.9004 4.37282 68.2002 4.24358C67.5946 4.1318 66.9702 4.01655 66.0779 3.7692H64.5669C61.502 5.19551 58.4447 6.64509 55.3873 8.0948Z" fill="#E9F7FF"/>
<path d="M36.993 77.6429L33.5602 75.8864L27.0545 88.6006L30.4873 90.3571L36.993 77.6429Z" fill="#A5E2F2"/>
<path fill-rule="evenodd" clip-rule="evenodd" d="M33.1197 75.6607C33.2443 75.4173 33.5427 75.3209 33.7861 75.4455L37.219 77.202C37.4624 77.3265 37.5588 77.6249 37.4342 77.8684L30.9286 90.5825C30.804 90.826 30.5057 90.9224 30.2622 90.7978L26.8294 89.0413C26.5859 88.9167 26.4895 88.6184 26.6141 88.3749L33.1197 75.6607ZM33.7758 76.5527L27.7213 88.3852L30.2725 89.6906L36.327 77.8581L33.7758 76.5527Z" fill="black"/>
<path d="M60.0857 86.8965L23.6595 68.2578L20.6669 74.1064L57.0931 92.745L60.0857 86.8965Z" fill="#5BC5EA"/>
<path fill-rule="evenodd" clip-rule="evenodd" d="M23.2185 68.0321C23.343 67.7887 23.6414 67.6923 23.8849 67.8169L60.3111 86.4555C60.5545 86.5801 60.6509 86.8785 60.5263 87.1219L57.5338 92.9705C57.4092 93.2139 57.1108 93.3103 56.8674 93.1857L20.4411 74.5471C20.1977 74.4225 20.1013 74.1241 20.2259 73.8807L23.2185 68.0321ZM23.8746 68.9241L21.3331 73.891L56.8777 92.0785L59.4191 87.1116L23.8746 68.9241Z" fill="black"/>
<path fill-rule="evenodd" clip-rule="evenodd" d="M23.4309 69.8185C23.6801 69.3316 24.2768 69.1388 24.7638 69.3879L58.5417 86.6696C59.0286 86.9188 59.2214 87.5155 58.9723 88.0025C58.7231 88.4894 58.1264 88.6822 57.6395 88.4331L23.8615 71.1513C23.3746 70.9022 23.1818 70.3055 23.4309 69.8185Z" fill="white"/>
<path fill-rule="evenodd" clip-rule="evenodd" d="M21.5626 73.4722C21.6872 73.2288 21.9856 73.1324 22.229 73.257L56.8877 90.9909C57.1312 91.1155 57.2276 91.4139 57.103 91.6574C56.9784 91.9008 56.68 91.9972 56.4366 91.8726L21.7779 74.1387C21.5344 74.0141 21.438 73.7157 21.5626 73.4722Z" fill="#3D93DD"/>
<path d="M57.9956 85.8379L25.7411 69.3417L28.1929 64.5571C28.8118 63.3431 30.3115 62.8671 31.5255 63.486L59.3524 77.7208C60.5664 78.3397 61.0425 79.8393 60.4236 81.0533L57.9956 85.8379Z" fill="white"/>
<path fill-rule="evenodd" clip-rule="evenodd" d="M31.2998 63.9264C30.3261 63.4303 29.1265 63.8146 28.6336 64.7815L28.6331 64.7824L26.4073 69.126L57.7783 85.1703L59.9815 80.8287L59.9819 80.8279C60.4783 79.8541 60.094 78.6544 59.127 78.1614L31.3001 63.9266C31.3 63.9266 31.2999 63.9265 31.2998 63.9264ZM27.7515 64.3312C28.4965 62.8705 30.2958 62.3029 31.7499 63.0442L31.7505 63.0446L59.5768 77.279C59.577 77.2791 59.5771 77.2792 59.5773 77.2793C61.0378 78.0241 61.6055 79.8231 60.8645 81.2772C60.8645 81.2774 60.8644 81.2775 60.8643 81.2777L58.4367 86.0615C58.3771 86.1789 58.2733 86.2677 58.1481 86.3084C58.023 86.349 57.8868 86.3382 57.7696 86.2783L25.5151 69.7821C25.3981 69.7223 25.3097 69.6184 25.2693 69.4933C25.229 69.3683 25.24 69.2323 25.2999 69.1154L27.7512 64.3317C27.7513 64.3315 27.7514 64.3314 27.7515 64.3312Z" fill="black"/>
<path d="M81.9185 99.6915L79.4429 100.572L49.0689 14.235C48.8309 13.5447 49.1879 12.8068 49.8783 12.5688C50.5686 12.3307 51.3065 12.6878 51.5445 13.3781L81.9185 99.6915Z" fill="white"/>
<path fill-rule="evenodd" clip-rule="evenodd" d="M77.5884 95.2255C77.8465 95.1349 78.1291 95.2706 78.2197 95.5287L79.7684 99.9379L81.2881 99.392L80.0465 95.8568C79.9559 95.5988 80.0916 95.3162 80.3497 95.2255C80.6077 95.1349 80.8904 95.2706 80.981 95.5287L82.3854 99.5277C82.4756 99.7845 82.3417 100.066 82.0856 100.158L79.6338 101.039C79.5096 101.083 79.3728 101.076 79.2536 101.02C79.1345 100.963 79.0429 100.861 78.9992 100.737L77.2853 95.8569C77.1947 95.5988 77.3304 95.3162 77.5884 95.2255Z" fill="black"/>
<path fill-rule="evenodd" clip-rule="evenodd" d="M51.0766 13.5397C50.9282 13.1094 50.4731 12.8877 50.0399 13.0371C49.61 13.1853 49.3883 13.6396 49.5368 14.0724C49.537 14.0729 49.5371 14.0733 49.5373 14.0738L71.6263 76.8182C71.7171 77.0762 71.5816 77.3589 71.3237 77.4497C71.0657 77.5406 70.7829 77.4051 70.6921 77.1471L48.6009 14.3966C48.2743 13.4492 48.7667 12.4285 49.717 12.1008C50.6639 11.7743 51.684 12.2659 52.0123 13.2152C52.0125 13.2157 52.0127 13.2163 52.0129 13.2168L74.3876 76.7706C74.4784 77.0286 74.3429 77.3113 74.0849 77.4021C73.827 77.493 73.5442 77.3575 73.4534 77.0995L51.0766 13.5397Z" fill="black"/>
<path d="M51.092 16.0684C35.4051 21.5909 27.1451 38.8012 32.6676 54.488L89.5117 34.4927C83.9891 18.782 66.8026 10.5458 51.092 16.0684Z" fill="#F5816E"/>
<path fill-rule="evenodd" clip-rule="evenodd" d="M50.928 15.6008C66.8964 9.98765 84.3657 18.3591 89.9791 34.3281C90.0698 34.586 89.9342 34.8687 89.6762 34.9594L32.8322 54.9548C32.5742 55.0456 32.2916 54.91 32.2008 54.6521C26.5873 38.707 34.9832 21.2141 50.9277 15.6009L50.928 15.6008ZM51.2564 16.5352C35.9833 21.9122 27.8684 38.5537 32.9744 53.8549L88.8767 34.1908C83.2718 19.042 66.5535 11.1581 51.2566 16.5351" fill="black"/>
<path d="M46.3311 49.7032L75.8957 39.3008C69.9209 23.5902 59.0186 13.283 51.0919 16.0681C43.1651 18.8532 41.1418 33.7307 46.3311 49.7032Z" fill="white"/>
<path fill-rule="evenodd" clip-rule="evenodd" d="M64.5649 20.3877C69.0946 24.6425 73.3508 31.2159 76.3586 39.1248L76.5391 39.5995L46.017 50.3388L45.8602 49.8562C43.2478 41.8155 42.442 34.0261 43.3026 27.8718C44.159 21.748 46.6969 17.0875 50.9278 15.6009C55.158 14.1147 60.0575 16.1537 64.5649 20.3877ZM63.8868 21.1095C59.4677 16.9585 54.9528 15.2365 51.2561 16.5353C47.5603 17.8339 45.1232 22.0046 44.2835 28.009C43.4651 33.8615 44.1943 41.3088 46.6473 49.067L75.2505 39.0029C72.2958 31.4146 68.1943 25.1557 63.8868 21.1095Z" fill="black"/>
<path d="M31.7152 93.7168H26.5497V100.549H31.7152V93.7168Z" fill="#5BC5EA"/>
<path fill-rule="evenodd" clip-rule="evenodd" d="M26.0547 93.7169C26.0547 93.4434 26.2764 93.2217 26.5499 93.2217H31.7154C31.9889 93.2217 32.2106 93.4434 32.2106 93.7169V100.549C32.2106 100.822 31.9889 101.044 31.7154 101.044H26.5499C26.2764 101.044 26.0547 100.822 26.0547 100.549V93.7169ZM27.0451 94.2121V100.053H31.2202V94.2121H27.0451Z" fill="black"/>
<path d="M113.91 93.7168H108.745V100.549H113.91V93.7168Z" fill="#5BC5EA"/>
<path fill-rule="evenodd" clip-rule="evenodd" d="M108.25 93.7169C108.25 93.4434 108.472 93.2217 108.745 93.2217H113.911C114.184 93.2217 114.406 93.4434 114.406 93.7169V100.549C114.406 100.822 114.184 101.044 113.911 101.044H108.745C108.472 101.044 108.25 100.822 108.25 100.549V93.7169ZM109.24 94.2121V100.053H113.415V94.2121H109.24Z" fill="black"/>
<path d="M119.505 87.1469H20.6709V93.7168H119.505V87.1469Z" fill="#5BC5EA"/>
<path fill-rule="evenodd" clip-rule="evenodd" d="M20.1751 87.147C20.1751 86.8735 20.3969 86.6518 20.6703 86.6518H119.505C119.778 86.6518 120 86.8735 120 87.147V93.7169C120 93.9904 119.778 94.2121 119.505 94.2121H20.6703C20.3969 94.2121 20.1751 93.9904 20.1751 93.7169V87.147ZM21.1656 87.6422V93.2217H119.009V87.6422H21.1656Z" fill="black"/>
<path fill-rule="evenodd" clip-rule="evenodd" d="M21.1559 88.6229C21.1559 88.0759 21.5993 87.6325 22.1463 87.6325H118.029C118.576 87.6325 119.019 88.0759 119.019 88.6229C119.019 89.1699 118.576 89.6133 118.029 89.6133H22.1463C21.5993 89.6133 21.1559 89.1699 21.1559 88.6229Z" fill="white"/>
<path fill-rule="evenodd" clip-rule="evenodd" d="M21.1749 92.7409C21.1749 92.4674 21.3966 92.2457 21.6701 92.2457H118.529C118.802 92.2457 119.024 92.4674 119.024 92.7409C119.024 93.0144 118.802 93.2361 118.529 93.2361H21.6701C21.3966 93.2361 21.1749 93.0144 21.1749 92.7409Z" fill="#3D93DD"/>
<path d="M116.839 87.1469H63.2801V81.7672C63.2801 80.4104 64.3988 79.2916 65.7557 79.2916H114.363C115.72 79.2916 116.839 80.4104 116.839 81.7672V87.1469Z" fill="white"/>
<path fill-rule="evenodd" clip-rule="evenodd" d="M65.7552 79.7869C64.6718 79.7869 63.7748 80.6839 63.7748 81.7673V86.6518H116.343V81.7673C116.343 80.6839 115.446 79.7869 114.363 79.7869H65.7552ZM116.839 87.147H117.334V81.7673C117.334 80.1369 115.993 78.7964 114.363 78.7964H65.7552C64.1248 78.7964 62.7843 80.1369 62.7843 81.7673V87.147C62.7843 87.4205 63.0061 87.6422 63.2796 87.6422H116.839V87.147Z" fill="black"/>
</svg>
