<svg width="145" height="135" viewBox="0 0 145 135" fill="none" xmlns="http://www.w3.org/2000/svg">
<path d="M34.1869 116.446C45.0658 126.733 60.2242 130.553 73.6879 134.422L74.2084 135C77.3375 133.842 78.4045 128.673 80.7437 126.076C83.1481 123.407 85.2688 120.347 87.2211 117.216C89.7453 113.169 93.8363 111.244 96.9952 107.971C104.069 100.642 109.152 91.4021 116.543 84.2486C118.992 81.8787 122.037 80.5079 124.409 78.0853C126.376 76.0757 128.313 74.069 130.192 71.954C134.997 66.546 140.885 58.8487 142.8 51.4095C144.97 42.9791 144.998 34.5449 144.998 25.8251C144.998 16.497 145.405 3.86208 135.108 1.30013C126.817 -0.762756 117.317 0.175354 108.909 0.465515C97.0918 0.873337 85.3871 2.6156 73.977 6.08315C64.4419 8.98089 55.1289 12.4928 46.0719 16.9011C36.5916 21.5155 26.7088 26.0309 17.7619 31.828C7.86257 38.2423 1.21409 48.1259 0.093433 60.815C-0.70521 69.858 3.76099 80.3575 7.95893 87.7155C14.8748 99.8375 24.5245 107.309 34.1869 116.446Z" fill="#E9F7FF"/>
<g clip-path="url(#clip0_2_5)">
<path d="M122.457 83.0126H58.5837V64.5046C58.5837 62.5302 59.4639 60.6508 60.9864 59.39L86.2504 38.2415C88.7245 36.1718 92.3404 36.1718 94.8382 38.2415L120.102 59.39C121.625 60.6508 122.505 62.5302 122.505 64.5046V83.0126H122.457Z" fill="#F5816E"/>
<path fill-rule="evenodd" clip-rule="evenodd" d="M86.568 38.6211C86.5679 38.6211 86.568 38.621 86.568 38.6211L61.3041 59.7695L61.3021 59.7712C59.8935 60.9376 59.0786 62.677 59.0786 64.5046V82.5177H122.01V64.5046C122.01 62.677 121.195 60.9376 119.787 59.7712L119.785 59.7695L94.5225 38.6226C94.5222 38.6223 94.5218 38.622 94.5215 38.6217C92.206 36.704 88.857 36.7063 86.568 38.6211ZM85.9329 37.8619C88.5916 35.6378 92.4739 35.6397 95.1541 37.8604L95.156 37.862L120.418 59.0088C120.418 59.0092 120.419 59.0095 120.419 59.0098C122.055 60.365 123 62.3838 123 64.5046V83.0126C123 83.2859 122.778 83.5075 122.505 83.5075H58.5837C58.3104 83.5075 58.0888 83.2859 58.0888 83.0126V64.5046C58.0888 62.3837 59.034 60.3648 60.6698 59.0096C60.6701 59.0094 60.6705 59.0091 60.6708 59.0088L85.9329 37.8619Z" fill="black"/>
<path d="M115.368 41.6433H65.649V92.9088H115.368V41.6433Z" fill="white"/>
<path fill-rule="evenodd" clip-rule="evenodd" d="M71.9817 41.6434C71.9817 41.3701 72.2033 41.1485 72.4766 41.1485H115.392C115.665 41.1485 115.887 41.3701 115.887 41.6434V92.9089C115.887 93.1822 115.665 93.4038 115.392 93.4038H65.6491C65.3758 93.4038 65.1542 93.1822 65.1542 92.9089C65.1542 92.6356 65.3758 92.414 65.6491 92.414H114.897V42.1383H72.4766C72.2033 42.1383 71.9817 41.9167 71.9817 41.6434Z" fill="black"/>
<path d="M105.876 51.8964H75.1647C74.6176 51.8964 74.1656 51.3493 74.1656 50.6594C74.1656 49.9695 74.6176 49.4224 75.1647 49.4224H105.876C106.424 49.4224 106.876 49.9695 106.876 50.6594C106.876 51.3493 106.424 51.8964 105.876 51.8964Z" fill="#F5816E"/>
<path d="M105.876 59.3186H75.1647C74.6176 59.3186 74.1656 58.7715 74.1656 58.0816C74.1656 57.3917 74.6176 56.8446 75.1647 56.8446H105.876C106.424 56.8446 106.876 57.3917 106.876 58.0816C106.876 58.7715 106.424 59.3186 105.876 59.3186Z" fill="#F5816E"/>
<path d="M105.876 66.7408H75.1647C74.6176 66.7408 74.1656 66.1937 74.1656 65.5038C74.1656 64.8139 74.6176 64.2668 75.1647 64.2668H105.876C106.424 64.2668 106.876 64.8139 106.876 65.5038C106.876 66.1937 106.424 66.7408 105.876 66.7408Z" fill="#F5816E"/>
<path d="M105.876 74.163H75.1647C74.6176 74.163 74.1656 73.6159 74.1656 72.926C74.1656 72.2361 74.6176 71.6889 75.1647 71.6889H105.876C106.424 71.6889 106.876 72.2361 106.876 72.926C106.876 73.6159 106.424 74.163 105.876 74.163Z" fill="#F5816E"/>
<path d="M114.988 60.4604L95.0762 78.9921C92.5069 81.371 88.5342 81.371 85.9649 78.9921L66.0535 60.4604C63.1988 57.8198 58.5599 59.818 58.5599 63.7195V90.958C58.5599 94.6453 61.5573 97.6427 65.2446 97.6427H115.749C119.436 97.6427 122.434 94.6453 122.434 90.958V63.7195C122.457 59.8418 117.819 57.8198 114.988 60.4604Z" fill="#F5816E"/>
<path fill-rule="evenodd" clip-rule="evenodd" d="M114.628 60.0972C117.797 57.1653 122.952 59.4077 122.952 63.7196V90.9581C122.952 94.9187 119.733 98.1377 115.773 98.1377H65.2685C61.3079 98.1377 58.0889 94.9187 58.0889 90.9581V63.7196C58.0889 63.4463 58.3104 63.2247 58.5838 63.2247C58.8571 63.2247 59.0787 63.4463 59.0787 63.7196V90.9581C59.0787 94.3721 61.8545 97.1479 65.2685 97.1479H115.773C119.187 97.1479 121.963 94.3721 121.963 90.9581V63.7196C121.963 60.2766 117.84 58.4749 115.301 60.8231C115.3 60.8234 115.3 60.8236 115.3 60.8238L95.4136 79.3543L95.4125 79.3553C92.6535 81.9099 88.3877 81.9099 85.6288 79.3553L85.6278 79.3544L71.8301 66.5083C71.6301 66.3221 71.6189 66.0089 71.8051 65.8089C71.9914 65.6088 72.3045 65.5976 72.5046 65.7839L86.3012 78.6291C86.3014 78.6292 86.3015 78.6293 86.3017 78.6295C88.681 80.8321 92.36 80.8322 94.7394 78.6296C94.7396 78.6294 94.7398 78.6292 94.74 78.6291L114.627 60.0984L114.628 60.0972Z" fill="black"/>
<path d="M95.6233 78.4926L94.4101 77.6362C92.0787 75.971 88.9624 75.971 86.6548 77.6362L85.4416 78.4926L60.8912 96.0014C62.0569 97.0243 63.6032 97.6428 65.2684 97.6428H115.773C117.462 97.6428 118.984 97.0243 120.15 96.0014L95.6233 78.4926Z" fill="#F5816E"/>
<path fill-rule="evenodd" clip-rule="evenodd" d="M94.6729 77.2328C94.6733 77.233 94.6736 77.2333 94.674 77.2336L95.887 78.0898L120.437 95.5986C120.56 95.6863 120.637 95.8256 120.644 95.9766C120.652 96.1276 120.59 96.2737 120.476 96.3735C119.223 97.473 117.586 98.1378 115.773 98.1378H65.2685C63.4801 98.1378 61.8185 97.4736 60.5649 96.3735C60.3595 96.1932 60.3391 95.8805 60.5193 95.6751C60.6996 95.4696 61.0123 95.4492 61.2178 95.6295C62.2954 96.5752 63.7264 97.148 65.2685 97.148H115.773C117.107 97.148 118.328 96.7318 119.327 96.0223L95.3142 78.897L95.3122 78.8956L94.101 78.0406L94.0987 78.039C91.9386 76.4961 89.0545 76.4978 86.9207 78.0376L86.9165 78.0406L85.7051 78.8957L85.7033 78.897L72.6211 88.221C72.3985 88.3797 72.0895 88.3278 71.9309 88.1053C71.7722 87.8827 71.8241 87.5737 72.0466 87.415L85.1306 78.0897L85.1325 78.0884L86.3415 77.235C86.3422 77.2345 86.3429 77.234 86.3436 77.2335C88.8244 75.4446 92.1712 75.4466 94.6729 77.2328Z" fill="black"/>
<path d="M27.2772 20.4947H66.5054C68.5988 20.4947 70.2879 22.1838 70.2879 24.2772V103.209C70.2879 105.303 68.5988 106.992 66.5054 106.992H27.2772C25.1838 106.992 23.4948 105.303 23.4948 103.209V24.2772C23.4948 22.1838 25.1838 20.4947 27.2772 20.4947Z" fill="#A5E2F2"/>
<path fill-rule="evenodd" clip-rule="evenodd" d="M27.2773 20.9897C25.4572 20.9897 23.9897 22.4572 23.9897 24.2773V103.209C23.9897 105.03 25.4572 106.497 27.2773 106.497H66.5055C68.3256 106.497 69.7931 105.03 69.7931 103.209V24.2773C69.7931 22.4572 68.3256 20.9897 66.5055 20.9897H27.2773ZM22.9999 24.2773C22.9999 21.9105 24.9105 19.9999 27.2773 19.9999H66.5055C68.8723 19.9999 70.7829 21.9105 70.7829 24.2773V103.209C70.7829 105.576 68.8723 107.487 66.5055 107.487H27.2773C24.9105 107.487 22.9999 105.576 22.9999 103.209V24.2773Z" fill="black"/>
<path d="M27.2772 104.518C26.5635 104.518 25.9688 103.923 25.9688 103.209V24.2772C25.9688 23.5635 26.5635 22.9688 27.2772 22.9688H66.5054C67.2191 22.9688 67.8138 23.5635 67.8138 24.2772V103.209C67.8138 103.923 67.2191 104.518 66.5054 104.518H27.2772Z" fill="#5BC5EA"/>
<path fill-rule="evenodd" clip-rule="evenodd" d="M26.4541 24.4677C26.4541 23.921 26.8972 23.4779 27.4439 23.4779H66.3153C66.8619 23.4779 67.3051 23.921 67.3051 24.4677C67.3051 25.0143 66.8619 25.4575 66.3153 25.4575H27.4439C26.8972 25.4575 26.4541 25.0143 26.4541 24.4677Z" fill="white"/>
<path fill-rule="evenodd" clip-rule="evenodd" d="M27.2773 23.4638C26.8369 23.4638 26.4638 23.8369 26.4638 24.2773V103.209C26.4638 103.65 26.8369 104.023 27.2773 104.023H66.5055C66.9459 104.023 67.319 103.65 67.319 103.209V24.2773C67.319 23.8369 66.9459 23.4638 66.5055 23.4638H27.2773ZM25.474 24.2773C25.474 23.2903 26.2903 22.474 27.2773 22.474H66.5055C67.4925 22.474 68.3088 23.2903 68.3088 24.2773V103.209C68.3088 104.196 67.4925 105.013 66.5055 105.013H27.2773C26.2903 105.013 25.474 104.196 25.474 103.209V24.2773Z" fill="black"/>
<path fill-rule="evenodd" clip-rule="evenodd" d="M36.0363 26.7989C36.0363 26.5256 36.2579 26.304 36.5312 26.304H57.2278C57.5011 26.304 57.7226 26.5256 57.7226 26.7989C57.7226 27.0723 57.5011 27.2938 57.2278 27.2938H36.5312C36.2579 27.2938 36.0363 27.0723 36.0363 26.7989Z" fill="black"/>
<path d="M52.2081 53.0382C41.9075 55.8215 43.4775 72.8069 42.4308 79.5155C41.3841 86.2002 31.8684 84.1067 31.1548 91.862C30.7979 95.8823 32.2491 100.759 33.7478 104.542H66.5054C67.2191 104.542 67.8138 103.947 67.8138 103.233V50.7307C63.2225 50.9448 57.632 51.5871 52.2081 53.0382Z" fill="white"/>
<path fill-rule="evenodd" clip-rule="evenodd" d="M27.4121 103.048C27.345 102.854 27.1609 102.715 26.9443 102.715C26.6709 102.715 26.4494 102.936 26.4494 103.209C26.4494 103.696 26.8605 104.037 27.2773 104.037H66.4817C66.9679 104.037 67.3097 103.626 67.3097 103.209C67.3097 102.936 67.0881 102.715 66.8148 102.715C66.5981 102.715 66.414 102.854 66.3469 103.048H27.4121Z" fill="#3D93DD"/>
<path fill-rule="evenodd" clip-rule="evenodd" d="M68.1555 50.3728C68.2533 50.4661 68.3087 50.5955 68.3087 50.7308V103.233C68.3087 104.22 67.4924 105.037 66.5054 105.037H33.7478C33.5448 105.037 33.3625 104.913 33.2877 104.724C31.7846 100.93 30.2941 95.9614 30.6618 91.8183L30.662 91.8167C30.8511 89.7612 31.6314 88.3297 32.7224 87.2496C33.7952 86.1874 35.1531 85.4826 36.449 84.8435C36.5503 84.7936 36.6511 84.744 36.7514 84.6948C39.2834 83.4503 41.4829 82.3693 41.9418 79.4393C42.1495 78.1082 42.2524 76.3626 42.3698 74.3694C42.3977 73.8958 42.4265 73.4082 42.4576 72.9089C42.6188 70.3268 42.8439 67.4618 43.3629 64.7131C44.3937 59.2544 46.6282 54.0334 52.079 52.5605L52.0802 52.5602C57.5478 51.0974 63.1752 50.4516 67.7907 50.2364C67.9258 50.2301 68.0576 50.2794 68.1555 50.3728ZM52.3366 53.5162C47.4872 54.8269 45.3565 59.4901 44.3355 64.8968C43.8287 67.581 43.6063 70.3941 43.4455 72.9706C43.4152 73.4562 43.3871 73.9346 43.3595 74.4027C43.242 76.3998 43.1356 78.209 42.9198 79.5919L42.9198 79.5921C42.3793 83.0435 39.7215 84.3439 37.2812 85.5378C37.149 85.6025 37.0174 85.6669 36.8868 85.7312C35.5838 86.3738 34.3635 87.0176 33.4187 87.9529C32.4922 88.8702 31.8155 90.0851 31.6477 91.9067C31.3115 95.6973 32.6376 100.327 34.0851 104.047H66.5054C66.9457 104.047 67.3189 103.674 67.3189 103.233V51.2509C62.8536 51.4871 57.5149 52.1309 52.3366 53.5162Z" fill="black"/>
<path d="M49.6628 55.2982C44.6195 55.2982 40.9797 58.6287 40.9797 65.3372C40.9797 72.0695 49.6628 77.9454 49.6628 77.9454C49.6628 77.9454 58.3458 72.0457 58.3458 65.3372C58.3458 58.6287 54.7061 55.2982 49.6628 55.2982ZM49.6628 68.2157C47.4742 68.2157 45.7138 66.4553 45.7138 64.2667C45.7138 62.0781 47.4742 60.3177 49.6628 60.3177C51.8514 60.3177 53.6118 62.1019 53.6118 64.2667C53.6118 66.4553 51.8514 68.2157 49.6628 68.2157Z" fill="#A5E2F2"/>
<path fill-rule="evenodd" clip-rule="evenodd" d="M43.0662 57.4667C44.7167 55.676 47.0293 54.8034 49.6628 54.8034C52.2964 54.8034 54.609 55.676 56.2595 57.4667C57.9063 59.2534 58.8408 61.896 58.8408 65.3373C58.8408 68.8901 56.5543 72.1628 54.3653 74.4957C53.2604 75.6732 52.1571 76.6358 51.3307 77.3037C50.917 77.638 50.5718 77.8993 50.3289 78.0777C50.2075 78.1669 50.1116 78.2354 50.0456 78.282C50.0125 78.3053 49.987 78.3231 49.9693 78.3353L49.949 78.3493L49.9434 78.3531L49.9418 78.3542L49.9413 78.3546C49.9411 78.3547 49.941 78.3548 49.6628 77.9455C49.3855 78.3553 49.3853 78.3552 49.3852 78.3551L49.383 78.3537L49.3775 78.3499L49.3571 78.3359C49.3395 78.3237 49.3139 78.306 49.2808 78.2828C49.2147 78.2363 49.1189 78.1681 48.9974 78.0792C48.7546 77.9014 48.4092 77.6409 47.9956 77.3075C47.169 76.6413 46.0657 75.681 44.9606 74.5048C42.7712 72.1744 40.4849 68.9018 40.4849 65.3373C40.4849 61.896 41.4194 59.2534 43.0662 57.4667ZM49.6628 77.9455L49.3855 78.3553C49.5533 78.4689 49.7734 78.4687 49.941 78.3548L49.6628 77.9455ZM49.6623 77.3389C49.6876 77.3205 49.7145 77.3009 49.7429 77.28C49.975 77.1096 50.3081 76.8575 50.7085 76.5339C51.5101 75.886 52.5776 74.9544 53.6435 73.8184C55.796 71.5244 57.851 68.493 57.851 65.3373C57.851 62.07 56.9655 59.6931 55.5317 58.1375C54.1015 56.5858 52.0725 55.7932 49.6628 55.7932C47.2531 55.7932 45.2242 56.5858 43.794 58.1375C42.3601 59.6931 41.4747 62.07 41.4747 65.3373C41.4747 68.505 43.53 71.5365 45.682 73.8271C46.7478 74.9615 47.8152 75.8909 48.6167 76.5368C49.017 76.8595 49.3501 77.1107 49.5821 77.2805C49.6104 77.3012 49.6371 77.3207 49.6623 77.3389ZM49.6628 60.8127C47.7476 60.8127 46.2088 62.3515 46.2088 64.2667C46.2088 66.182 47.7476 67.7208 49.6628 67.7208C51.5781 67.7208 53.1169 66.182 53.1169 64.2667C53.1169 62.3733 51.5762 60.8127 49.6628 60.8127ZM45.219 64.2667C45.219 61.8048 47.2009 59.8229 49.6628 59.8229C52.1267 59.8229 54.1067 61.8306 54.1067 64.2667C54.1067 66.7287 52.1248 68.7106 49.6628 68.7106C47.2009 68.7106 45.219 66.7287 45.219 64.2667Z" fill="black"/>
<path fill-rule="evenodd" clip-rule="evenodd" d="M45.0946 59.6733C44.0652 60.8971 43.4446 62.7816 43.4446 65.3611C43.4446 65.9078 43.0015 66.3509 42.4548 66.3509C41.9082 66.3509 41.465 65.9078 41.465 65.3611C41.465 62.493 42.1528 60.0954 43.5797 58.3991C45.0276 56.6777 47.1282 55.8073 49.6629 55.8073C52.1976 55.8073 54.2983 56.6777 55.7461 58.3991C57.173 60.0954 57.8608 62.493 57.8608 65.3611C57.8608 65.9078 57.4176 66.3509 56.871 66.3509C56.3243 66.3509 55.8812 65.9078 55.8812 65.3611C55.8812 62.7816 55.2606 60.8971 54.2312 59.6733C53.2229 58.4746 51.7195 57.7868 49.6629 57.7868C47.6063 57.7868 46.1029 58.4746 45.0946 59.6733Z" fill="white"/>
<path fill-rule="evenodd" clip-rule="evenodd" d="M56.6344 68.6743C56.8805 68.7932 56.9836 69.0892 56.8646 69.3352C55.0724 73.0424 51.3462 76.0766 49.962 77.1266C49.7852 77.2607 49.5407 77.2607 49.3638 77.1266C47.9781 76.0753 44.3267 73.0906 42.5112 69.4351C42.3896 69.1903 42.4895 68.8933 42.7343 68.7717C42.9791 68.6502 43.2761 68.7501 43.3977 68.9949C44.9902 72.2014 48.1352 74.9142 49.663 76.1077C51.1995 74.9082 54.4033 72.1523 55.9735 68.9044C56.0924 68.6584 56.3884 68.5553 56.6344 68.6743Z" fill="#3D93DD"/>
</g>
<defs>
<clipPath id="clip0_2_5">
<rect width="100" height="100" fill="white" transform="translate(23 14)"/>
</clipPath>
</defs>
</svg>
