<svg width="114" height="106" viewBox="0 0 114 106" fill="none" xmlns="http://www.w3.org/2000/svg">
<path d="M1.34453 26.7302C2.7043 24.5159 2.42018 19.9968 5.00059 19.6822L8.98899 15.6707H9.48754C11.0524 17.2446 19.3275 12.1469 20.7326 10.9906C22.8856 9.21889 24.8928 7.38749 27.4353 6.14344C30.9037 4.44636 35.1016 5.14056 38.8465 5.14056C43.7129 5.14056 48.4457 6.52551 53.1937 7.4806C60.9859 9.04805 68.6709 11.0408 76.5147 12.3557C80.136 12.9627 83.1194 12.5945 85.4886 15.7264C87.3556 18.1943 88.245 21.4629 90.0864 24.0837C94.7062 30.659 98.7966 37.6783 102.993 44.5311C108.695 53.8413 114.7 64.872 113.934 76.1216C113.438 83.3977 113.791 95.0389 106.262 98.8254C101.388 101.276 95.3968 103.591 90.1418 104.871C81.3848 107.003 71.6715 105.745 62.9431 104.146C54.1092 102.528 46.5334 100.49 38.625 96.0954C31.4939 92.133 25.2655 87.7739 19.3477 82.1388C10.7982 73.9978 4.20539 62.9769 1.39993 51.4955C0.208539 46.6197 -0.024297 41.8868 0.0150676 36.8982C0.0391369 33.8479 -0.308075 29.4213 1.34453 26.7302Z" fill="#E9F7FF"/>
<g clip-path="url(#clip0_2_2)">
<path d="M75.7622 35.1911C83.9625 35.1911 90.6102 28.5434 90.6102 20.3432C90.6102 12.1429 83.9625 5.49521 75.7622 5.49521C67.562 5.49521 60.9143 12.1429 60.9143 20.3432C60.9143 28.5434 67.562 35.1911 75.7622 35.1911Z" fill="#F5816E"/>
<path fill-rule="evenodd" clip-rule="evenodd" d="M75.7623 5.99011C67.8497 5.99011 61.4093 12.4077 61.4093 20.343C61.4093 22.0692 61.7083 23.7023 62.2607 25.2444C62.3529 25.5018 62.219 25.7852 61.9617 25.8774C61.7043 25.9695 61.4209 25.8356 61.3287 25.5783C60.739 23.9319 60.4193 22.1861 60.4193 20.343C60.4193 11.8599 67.304 5.00008 75.7623 5.00008C84.2211 5.00008 91.1052 11.8842 91.1052 20.343C91.1052 26.5161 87.4407 31.8505 82.1805 34.284C81.9324 34.3987 81.6382 34.2907 81.5234 34.0425C81.4086 33.7944 81.5167 33.5002 81.7649 33.3854C86.6889 31.1075 90.1152 26.115 90.1152 20.343C90.1152 12.431 83.6743 5.99011 75.7623 5.99011Z" fill="black"/>
<path d="M64.1266 75.6656H10.7787L7.63778 56.4156C6.6622 50.3955 11.3022 44.9227 17.4174 44.9227H106.505C100.509 63.2447 83.4241 75.6656 64.1266 75.6656Z" fill="#5BC5EA"/>
<path fill-rule="evenodd" clip-rule="evenodd" d="M17.4173 45.4179C11.6077 45.4179 7.19941 50.6169 8.1263 56.3365L11.1994 75.1707H64.1264C82.9807 75.1707 99.6993 63.1806 105.817 45.4179H17.4173ZM7.14902 56.4949C6.12475 50.1744 10.9964 44.4278 17.4173 44.4278H106.505C106.664 44.4278 106.813 44.5039 106.906 44.6323C106.999 44.7608 107.025 44.926 106.975 45.0768C100.913 63.6018 83.6386 76.1607 64.1264 76.1607H10.7786C10.536 76.1607 10.3291 75.9849 10.29 75.7454L7.14902 56.4949Z" fill="black"/>
<path d="M65.864 69.1707C67.4544 69.1707 68.7437 67.8814 68.7437 66.291C68.7437 64.7006 67.4544 63.4114 65.864 63.4114C64.2736 63.4114 62.9844 64.7006 62.9844 66.291C62.9844 67.8814 64.2736 69.1707 65.864 69.1707Z" fill="#3D93DD"/>
<path d="M75.7628 69.1707C77.3532 69.1707 78.6425 67.8814 78.6425 66.291C78.6425 64.7006 77.3532 63.4114 75.7628 63.4114C74.1724 63.4114 72.8831 64.7006 72.8831 66.291C72.8831 67.8814 74.1724 69.1707 75.7628 69.1707Z" fill="#3D93DD"/>
<path fill-rule="evenodd" clip-rule="evenodd" d="M90.2719 65.998C90.4334 66.2186 90.3855 66.5284 90.1649 66.6898C82.8001 72.081 73.7512 75.1612 64.1504 75.1612H11.6115C11.3381 75.1612 11.1165 74.9396 11.1165 74.6662C11.1165 74.3928 11.3381 74.1712 11.6115 74.1712H64.1504C73.5377 74.1712 82.3825 71.1599 89.5801 65.891C89.8007 65.7295 90.1105 65.7774 90.2719 65.998Z" fill="#3D93DD"/>
<path fill-rule="evenodd" clip-rule="evenodd" d="M17.3936 47.3882C15.2355 47.3882 13.1552 48.3535 11.7479 50.0129L11.7432 50.0184C10.3174 51.6748 9.70905 53.8535 10.0661 56.0166C10.1551 56.5561 9.78995 57.0656 9.25047 57.1546C8.71099 57.2437 8.20147 56.8785 8.11243 56.339C7.66061 53.6016 8.43151 50.8322 10.2401 48.7294C12.0212 46.6309 14.6513 45.4081 17.3936 45.4081H104.387C104.934 45.4081 105.377 45.8514 105.377 46.3982C105.377 46.9449 104.934 47.3882 104.387 47.3882H17.3936Z" fill="white"/>
<path fill-rule="evenodd" clip-rule="evenodd" d="M99.4426 75.6658C99.4426 75.3924 99.6643 75.1707 99.9377 75.1707H103.389C103.662 75.1707 103.884 75.3924 103.884 75.6658C103.884 75.9392 103.662 76.1609 103.389 76.1609H99.9377C99.6643 76.1609 99.4426 75.9392 99.4426 75.6658Z" fill="black"/>
<path fill-rule="evenodd" clip-rule="evenodd" d="M7 75.6657C7 75.3923 7.22163 75.1707 7.49501 75.1707H96.6064C96.8798 75.1707 97.1014 75.3923 97.1014 75.6657C97.1014 75.9391 96.8798 76.1607 96.6064 76.1607H7.49501C7.22163 76.1607 7 75.9391 7 75.6657Z" fill="black"/>
<path d="M74.2394 30.8601H23.8421L19.8922 44.9228H94.0604L74.2394 30.8601Z" fill="white"/>
<path fill-rule="evenodd" clip-rule="evenodd" d="M23.3655 30.7261C23.4255 30.5125 23.6203 30.365 23.8421 30.365H74.2394C74.3421 30.365 74.4422 30.3969 74.5259 30.4563L94.3469 44.5189C94.5227 44.6436 94.5976 44.8677 94.5321 45.073C94.4667 45.2783 94.276 45.4177 94.0605 45.4177H19.8922C19.7372 45.4177 19.5912 45.3451 19.4976 45.2217C19.4041 45.0982 19.3737 44.938 19.4156 44.7888L23.3655 30.7261ZM24.2172 31.355L20.5454 44.4277H92.5073L74.0817 31.355H24.2172Z" fill="black"/>
<path d="M74.2393 27.7192H18.8689V30.8839H74.2393V27.7192Z" fill="white"/>
<path fill-rule="evenodd" clip-rule="evenodd" d="M18.3739 27.7191C18.3739 27.4457 18.5955 27.2241 18.8689 27.2241H74.2394C74.5128 27.2241 74.7344 27.4457 74.7344 27.7191V30.8838C74.7344 31.1572 74.5128 31.3788 74.2394 31.3788H18.8689C18.5955 31.3788 18.3739 31.1572 18.3739 30.8838V27.7191ZM19.3639 28.2141V30.3888H73.7444V28.2141H19.3639Z" fill="black"/>
<path d="M39.5229 17.2493H29.9336C32.6224 21.5799 32.6224 25.0539 29.9336 27.6952H47.9462L39.5229 17.2493Z" fill="white"/>
<path fill-rule="evenodd" clip-rule="evenodd" d="M29.5009 17.009C29.5882 16.852 29.7538 16.7546 29.9335 16.7546H39.5228C39.6725 16.7546 39.8142 16.8224 39.9081 16.9389L48.3315 27.3848C48.4511 27.5332 48.475 27.7372 48.3927 27.9091C48.3105 28.0811 48.1368 28.1906 47.9461 28.1906H29.9335C29.7325 28.1906 29.5514 28.069 29.4753 27.883C29.3992 27.6969 29.4432 27.4833 29.5866 27.3424C30.8451 26.1062 31.4551 24.7015 31.4551 23.1061C31.4551 21.4919 30.83 19.632 29.513 17.5108C29.4182 17.3581 29.4136 17.1661 29.5009 17.009ZM30.8016 17.7447C31.8818 19.6657 32.4451 21.4551 32.4451 23.1061C32.4451 24.6241 31.9687 25.9917 31.036 27.2005H46.9111L39.2861 17.7447H30.8016Z" fill="black"/>
<path d="M18.5125 57.5588C20.1029 57.5588 21.3922 56.2696 21.3922 54.6792C21.3922 53.0888 20.1029 51.7995 18.5125 51.7995C16.9221 51.7995 15.6329 53.0888 15.6329 54.6792C15.6329 56.2696 16.9221 57.5588 18.5125 57.5588Z" fill="#3D93DD"/>
<path d="M28.4112 57.5588C30.0016 57.5588 31.2909 56.2696 31.2909 54.6792C31.2909 53.0888 30.0016 51.7995 28.4112 51.7995C26.8208 51.7995 25.5315 53.0888 25.5315 54.6792C25.5315 56.2696 26.8208 57.5588 28.4112 57.5588Z" fill="#3D93DD"/>
<path d="M38.3098 57.5588C39.9002 57.5588 41.1895 56.2696 41.1895 54.6792C41.1895 53.0888 39.9002 51.7995 38.3098 51.7995C36.7194 51.7995 35.4301 53.0888 35.4301 54.6792C35.4301 56.2696 36.7194 57.5588 38.3098 57.5588Z" fill="#3D93DD"/>
<path d="M48.2084 57.5588C49.7988 57.5588 51.088 56.2696 51.088 54.6792C51.088 53.0888 49.7988 51.7995 48.2084 51.7995C46.618 51.7995 45.3287 53.0888 45.3287 54.6792C45.3287 56.2696 46.618 57.5588 48.2084 57.5588Z" fill="#3D93DD"/>
<path d="M44.948 39.3309H28.0062C27.1258 39.3309 26.3881 38.6171 26.3881 37.7129C26.3881 36.8325 27.102 36.0948 28.0062 36.0948H44.948C45.8285 36.0948 46.5661 36.8087 46.5661 37.7129C46.5661 38.5933 45.8285 39.3309 44.948 39.3309Z" fill="#A5E2F2"/>
<path d="M64.7451 39.3309H52.7526C51.8722 39.3309 51.1345 38.6171 51.1345 37.7129C51.1345 36.8325 51.8484 36.0948 52.7526 36.0948H64.7451C65.6255 36.0948 66.3632 36.8087 66.3632 37.7129C66.3632 38.5933 65.6493 39.3309 64.7451 39.3309Z" fill="#A5E2F2"/>
<path d="M64.079 85.7546H17.0844C15.5853 85.7546 14.3956 84.5411 14.3956 83.0658C14.3956 81.5668 15.6091 80.377 17.0844 80.377H64.079C65.5781 80.377 66.7679 81.5905 66.7679 83.0658C66.7679 84.5411 65.5781 85.7546 64.079 85.7546Z" fill="#F5816E"/>
<path d="M78.6891 94.7728H39.9275C38.4284 94.7728 37.2386 93.5592 37.2386 92.084C37.2386 90.5849 38.4522 89.3952 39.9275 89.3952H78.6891C80.1882 89.3952 81.378 90.6087 81.378 92.084C81.378 93.583 80.1882 94.7728 78.6891 94.7728Z" fill="#F5816E"/>
<path d="M90.8719 85.7546H73.5255C72.0264 85.7546 70.8367 84.5411 70.8367 83.0658C70.8367 81.5668 72.0502 80.377 73.5255 80.377H90.8719C92.371 80.377 93.5607 81.5905 93.5607 83.0658C93.5607 84.5411 92.3472 85.7546 90.8719 85.7546Z" fill="#F5816E"/>
</g>
<defs>
<clipPath id="clip0_2_2">
<rect width="100" height="100" fill="white" transform="translate(7)"/>
</clipPath>
</defs>
</svg>
