<svg width="117" height="114" viewBox="0 0 117 114" fill="none" xmlns="http://www.w3.org/2000/svg">
<path d="M27.5853 14.9809C36.3635 6.67464 48.5947 3.59058 59.4585 0.466532L59.8785 0C62.4034 0.934888 63.2644 5.10878 65.1518 7.20532C67.0919 9.36037 68.8031 11.8312 70.3784 14.3588C72.4152 17.6267 75.7162 19.1808 78.2651 21.8233C83.9726 27.7406 88.074 35.2013 94.0383 40.977C96.0143 42.8905 98.4709 43.9973 100.385 45.9534C101.973 47.5759 103.535 49.1962 105.052 50.9038C108.929 55.2703 113.68 61.4851 115.225 67.4916C116.976 74.2983 116.998 81.1082 116.998 88.1486C116.998 95.6802 117.327 105.882 109.018 107.95C102.328 109.616 94.6627 108.858 87.8784 108.624C78.343 108.295 68.8985 106.888 59.6918 104.088C51.998 101.749 44.4833 98.9132 37.1752 95.3539C29.5256 91.6282 21.5512 87.9825 14.332 83.3018C6.34428 78.1229 0.979648 70.1428 0.0753908 59.8975C-0.569031 52.5961 3.03473 44.1188 6.42203 38.1779C12.0024 28.3905 19.7887 22.3582 27.5853 14.9809Z" fill="#E9F7FF"/>
<g clip-path="url(#clip0_2_3)">
<path d="M100.407 35.1753L26.1766 48.2832L32.1408 82.0583L106.371 68.9504L100.407 35.1753Z" fill="white"/>
<path fill-rule="evenodd" clip-rule="evenodd" d="M54.5844 43.26C54.6319 43.5292 54.4521 43.7861 54.1828 43.8336L26.7527 48.6742L32.5541 81.4717L105.789 68.53L103.757 56.9742C103.709 56.7049 103.889 56.4482 104.158 56.4008C104.428 56.3534 104.685 56.5333 104.732 56.8027L106.85 68.8457C106.897 69.1148 106.718 69.3715 106.449 69.419L32.239 82.533C31.9697 82.5806 31.7128 82.401 31.6652 82.1317L25.6913 48.3589C25.6684 48.2296 25.6979 48.0964 25.7732 47.9888C25.8485 47.8812 25.9635 47.8079 26.0928 47.7851L54.0107 42.8584C54.28 42.8109 54.5369 42.9907 54.5844 43.26Z" fill="black"/>
<path fill-rule="evenodd" clip-rule="evenodd" d="M100.696 34.7767C100.804 34.852 100.877 34.967 100.9 35.0964L103.97 52.5183C104.018 52.7876 103.838 53.0444 103.569 53.0918C103.299 53.1393 103.042 52.9594 102.995 52.6901L100.011 35.756L62.8699 42.3102C62.6006 42.3577 62.3438 42.178 62.2963 41.9087C62.2488 41.6394 62.4285 41.3825 62.6978 41.335L100.326 34.6947C100.456 34.6719 100.589 34.7014 100.696 34.7767Z" fill="black"/>
<path d="M100.391 35.1706L73.5308 39.9138L79.4949 73.6889L106.356 68.9458L100.391 35.1706Z" fill="white"/>
<path fill-rule="evenodd" clip-rule="evenodd" d="M100.326 34.6948C100.596 34.6473 100.852 34.8271 100.9 35.0963L104.351 54.638L104.97 58.2064L106.85 68.8452C106.898 69.1144 106.718 69.3712 106.449 69.4189L79.5782 74.179C79.4489 74.2019 79.3157 74.1725 79.2081 74.0972C79.1004 74.0219 79.0271 73.9069 79.0043 73.7776L76.41 59.0927L76.4097 59.0906L75.6722 54.8088L75.6718 54.8066L73.0542 40.0049C73.0313 39.8755 73.0608 39.7424 73.1361 39.6348C73.2114 39.5271 73.3264 39.4539 73.4558 39.4311L100.326 34.6948ZM74.1156 40.3203L76.6477 54.6385L77.3852 58.9205L77.3855 58.9226L79.8933 73.1175L105.789 68.5302L103.995 58.3788L103.994 58.3771L103.376 54.8071L100.011 35.7559L74.1156 40.3203Z" fill="black"/>
<path d="M92.1298 56.9836L91.5348 52.7709L99.032 53.5563L98.6036 51.0572L90.8922 48.6772L90.7018 47.6062C90.5352 46.7018 90.2496 45.7974 89.8212 44.9881L88.9644 43.2983C88.774 42.9413 88.3932 42.7509 87.9886 42.7985C87.584 42.8699 87.2746 43.2031 87.227 43.5839L86.989 45.488C86.87 46.4162 86.8938 47.3444 87.0604 48.2488L87.2508 49.3198L80.8246 54.1989L81.2531 56.6979L88.0362 53.3897L88.9168 57.5548C88.9644 57.769 89.012 57.9832 89.1072 58.1974L90.2734 61.1248L86.7747 62.9575L87.108 64.8139L91.4396 63.7905L91.3206 63.4811C91.4158 63.5287 91.511 63.5525 91.6062 63.5287C91.7014 63.5049 91.7966 63.4573 91.868 63.3859V63.7191L96.2711 63.1955L95.9379 61.339L92.0346 60.8154L92.1298 57.65C92.1774 57.4358 92.1774 57.2216 92.1298 56.9836Z" fill="#F5816E"/>
<path fill-rule="evenodd" clip-rule="evenodd" d="M67.811 49.3905C67.9297 50.0638 67.4801 50.7058 66.8069 50.8245L35.8902 56.2747C35.2169 56.3934 34.5749 55.9439 34.4562 55.2706C34.3375 54.5974 34.7871 53.9554 35.4604 53.8367L66.3771 48.3864C67.0503 48.2677 67.6923 48.7173 67.811 49.3905Z" fill="#F66867"/>
<path fill-rule="evenodd" clip-rule="evenodd" d="M69.2866 57.7919C69.4054 58.4652 68.9559 59.1072 68.2827 59.226L37.3898 64.6763C36.7165 64.7951 36.0745 64.3456 35.9557 63.6724C35.8369 62.9992 36.2864 62.3571 36.9596 62.2383L67.8526 56.788C68.5258 56.6692 69.1679 57.1187 69.2866 57.7919Z" fill="#F66867"/>
<path fill-rule="evenodd" clip-rule="evenodd" d="M70.762 66.1687C70.8813 66.8418 70.4323 67.4842 69.7592 67.6035L38.8663 73.0776C38.1931 73.1969 37.5507 72.7479 37.4315 72.0747C37.3122 71.4016 37.7612 70.7592 38.4343 70.6399L69.3272 65.1658C70.0004 65.0465 70.6428 65.4955 70.762 66.1687Z" fill="#F66867"/>
<path d="M107.505 61.529H32.1291V95.8254H107.505V61.529Z" fill="white"/>
<path fill-rule="evenodd" clip-rule="evenodd" d="M62.2888 61.5291C62.2888 61.2556 62.5105 61.034 62.7839 61.034H107.505C107.778 61.034 108 61.2556 108 61.5291V95.8017C108 96.0751 107.778 96.2968 107.505 96.2968H62.7839C62.5105 96.2968 62.2888 96.0751 62.2888 95.8017C62.2888 95.5282 62.5105 95.3065 62.7839 95.3065H107.01V62.0242H62.7839C62.5105 62.0242 62.2888 61.8025 62.2888 61.5291Z" fill="black"/>
<path d="M107.505 61.529H80.2297V95.8254H107.505V61.529Z" fill="white"/>
<path fill-rule="evenodd" clip-rule="evenodd" d="M79.7345 61.5291C79.7345 61.2556 79.9562 61.034 80.2296 61.034H107.505C107.778 61.034 108 61.2556 108 61.5291V95.8255C108 96.0989 107.778 96.3206 107.505 96.3206H80.2296C79.9562 96.3206 79.7345 96.0989 79.7345 95.8255V61.5291ZM80.7247 62.0242V95.3303H107.01V62.0242H80.7247Z" fill="black"/>
<path d="M95.5572 81.569L95.7 77.3087L102.959 79.3793V76.8565L95.7952 73.1674V72.0964C95.7952 71.1682 95.6524 70.24 95.3906 69.3594L94.8431 67.5267C94.7241 67.1459 94.3671 66.8841 93.9625 66.8841C93.5579 66.8841 93.2009 67.1459 93.0819 67.5267L92.5345 69.3594C92.2727 70.24 92.1299 71.1682 92.1299 72.0964V73.1674L84.966 76.8565V79.3793L92.2251 77.3087L92.3679 81.569C92.3679 81.7832 92.3917 82.0212 92.4393 82.2354L93.0819 85.3295L89.3214 86.5195V88.3997L93.7483 88.1379L93.7007 87.8047C93.7721 87.8761 93.8673 87.8999 93.9863 87.8999C94.0815 87.8999 94.2005 87.8523 94.2719 87.8047L94.2243 88.1379L98.6512 88.3997V86.5195L94.8907 85.3295L95.5334 82.2354C95.5334 82.0212 95.5572 81.7832 95.5572 81.569Z" fill="#F5816E"/>
<path fill-rule="evenodd" clip-rule="evenodd" d="M39.0786 69.8594C39.0786 69.1757 39.6328 68.6215 40.3164 68.6215H71.6853C72.369 68.6215 72.9232 69.1757 72.9232 69.8594C72.9232 70.543 72.369 71.0972 71.6853 71.0972H40.3164C39.6328 71.0972 39.0786 70.543 39.0786 69.8594Z" fill="#F66867"/>
<path fill-rule="evenodd" clip-rule="evenodd" d="M39.0786 78.3799C39.0786 77.6963 39.6328 77.1421 40.3164 77.1421H71.6853C72.369 77.1421 72.9232 77.6963 72.9232 78.3799C72.9232 79.0636 72.369 79.6177 71.6853 79.6177H40.3164C39.6328 79.6177 39.0786 79.0636 39.0786 78.3799Z" fill="#F66867"/>
<path fill-rule="evenodd" clip-rule="evenodd" d="M39.0786 86.9005C39.0786 86.2169 39.6328 85.6627 40.3164 85.6627H71.6853C72.369 85.6627 72.9232 86.2169 72.9232 86.9005C72.9232 87.5841 72.369 88.1383 71.6853 88.1383H40.3164C39.6328 88.1383 39.0786 87.5841 39.0786 86.9005Z" fill="#F66867"/>
<path d="M53.6684 102.133H8.49525V26.4949H53.6684C57.5003 26.4949 60.5944 29.589 60.5944 33.4209V95.2067C60.5944 99.0386 57.4765 102.133 53.6684 102.133Z" fill="#5BC5EA"/>
<path fill-rule="evenodd" clip-rule="evenodd" d="M8.00006 26.4951C8.00006 26.2216 8.22174 25.9999 8.49519 25.9999H53.6684C57.7737 25.9999 61.0895 29.3157 61.0895 33.421V95.2069C61.0895 99.3133 57.7488 102.628 53.6684 102.628H8.49519C8.22174 102.628 8.00006 102.406 8.00006 102.133V26.4951ZM8.99033 26.9902V101.638H53.6684C57.2041 101.638 60.0992 98.7642 60.0992 95.2069V33.421C60.0992 29.8626 57.2268 26.9902 53.6684 26.9902H8.99033Z" fill="black"/>
<path fill-rule="evenodd" clip-rule="evenodd" d="M59.5947 94.7118C59.8681 94.7118 60.0898 94.9335 60.0898 95.2069C60.0898 98.7648 57.2025 101.652 53.6446 101.652H9.47101C9.19755 101.652 8.97588 101.43 8.97588 101.157C8.97588 100.884 9.19755 100.662 9.47101 100.662H53.6446C56.6556 100.662 59.0996 98.2179 59.0996 95.2069C59.0996 94.9335 59.3212 94.7118 59.5947 94.7118Z" fill="#3D93DD"/>
<path fill-rule="evenodd" clip-rule="evenodd" d="M8.98045 27.9946C8.98045 27.4477 9.42381 27.0044 9.97072 27.0044H53.6683C57.214 27.0044 60.1088 29.8992 60.1088 33.4449C60.1088 33.9918 59.6655 34.4352 59.1186 34.4352C58.5717 34.4352 58.1283 33.9918 58.1283 33.4449C58.1283 30.993 56.1202 28.9849 53.6683 28.9849H9.97072C9.42381 28.9849 8.98045 28.5415 8.98045 27.9946Z" fill="white"/>
<path d="M52.4546 85.4725H16.635V93.4456H52.4546V85.4725Z" fill="#A5E2F2"/>
<path fill-rule="evenodd" clip-rule="evenodd" d="M16.1398 85.4724C16.1398 85.199 16.3615 84.9773 16.6349 84.9773H52.4546C52.728 84.9773 52.9497 85.199 52.9497 85.4724V93.4455C52.9497 93.719 52.728 93.9407 52.4546 93.9407H16.6349C16.3615 93.9407 16.1398 93.719 16.1398 93.4455V85.4724ZM17.1301 85.9675V92.9504H51.9594V85.9675H17.1301Z" fill="black"/>
<path fill-rule="evenodd" clip-rule="evenodd" d="M17.1394 92.4698C17.1394 92.1963 17.3611 91.9746 17.6345 91.9746H51.4549C51.7284 91.9746 51.95 92.1963 51.95 92.4698C51.95 92.7432 51.7284 92.9649 51.4549 92.9649H17.6345C17.3611 92.9649 17.1394 92.7432 17.1394 92.4698Z" fill="#3D93DD"/>
<path fill-rule="evenodd" clip-rule="evenodd" d="M17.1202 86.972C17.1202 86.4251 17.5636 85.9817 18.1105 85.9817H50.955C51.5019 85.9817 51.9453 86.4251 51.9453 86.972C51.9453 87.5189 51.5019 87.9622 50.955 87.9622H18.1105C17.5636 87.9622 17.1202 87.5189 17.1202 86.972Z" fill="white"/>
<path d="M34.5329 62.8858C40.0011 62.8858 44.4339 58.453 44.4339 52.9849C44.4339 47.5167 40.0011 43.0839 34.5329 43.0839C29.0648 43.0839 24.6319 47.5167 24.6319 52.9849C24.6319 58.453 29.0648 62.8858 34.5329 62.8858Z" fill="#A5E2F2"/>
<path fill-rule="evenodd" clip-rule="evenodd" d="M34.5329 40.4374C27.6031 40.4374 21.9854 46.0551 21.9854 52.9849C21.9854 59.9147 27.6031 65.5324 34.5329 65.5324C41.4627 65.5324 47.0804 59.9147 47.0804 52.9849C47.0804 46.0551 41.4627 40.4374 34.5329 40.4374ZM20.9952 52.9849C20.9952 45.5082 27.0562 39.4472 34.5329 39.4472C42.0096 39.4472 48.0707 45.5082 48.0707 52.9849C48.0707 60.4616 42.0096 66.5227 34.5329 66.5227C27.0562 66.5227 20.9952 60.4616 20.9952 52.9849Z" fill="black"/>
<path fill-rule="evenodd" clip-rule="evenodd" d="M30.1758 43.9908C28.9919 46.2672 28.2449 49.4463 28.2449 52.9849C28.2449 56.5236 28.9919 59.7027 30.1758 61.979C31.3723 64.2797 32.9382 65.5324 34.5329 65.5324C36.1277 65.5324 37.6935 64.2797 38.89 61.979C40.0739 59.7027 40.8209 56.5236 40.8209 52.9849C40.8209 49.4463 40.0739 46.2672 38.89 43.9908C37.6935 41.6902 36.1277 40.4374 34.5329 40.4374C32.9382 40.4374 31.3723 41.6902 30.1758 43.9908ZM29.2973 43.5339C30.5557 41.1141 32.3814 39.4472 34.5329 39.4472C36.6844 39.4472 38.5101 41.1141 39.7686 43.5339C41.0397 45.9781 41.8112 49.3203 41.8112 52.9849C41.8112 56.6495 41.0397 59.9917 39.7686 62.4359C38.5101 64.8557 36.6844 66.5227 34.5329 66.5227C32.3814 66.5227 30.5557 64.8557 29.2973 62.4359C28.0261 59.9917 27.2547 56.6495 27.2547 52.9849C27.2547 49.3203 28.0261 45.9781 29.2973 43.5339Z" fill="black"/>
<path fill-rule="evenodd" clip-rule="evenodd" d="M22.4231 47.0349C22.4231 46.7614 22.6448 46.5397 22.9183 46.5397H46.1475C46.4209 46.5397 46.6426 46.7614 46.6426 47.0349C46.6426 47.3083 46.4209 47.53 46.1475 47.53H22.9183C22.6448 47.53 22.4231 47.3083 22.4231 47.0349Z" fill="black"/>
<path fill-rule="evenodd" clip-rule="evenodd" d="M22.4231 58.935C22.4231 58.6616 22.6448 58.4399 22.9183 58.4399H46.1475C46.4209 58.4399 46.6426 58.6616 46.6426 58.935C46.6426 59.2085 46.4209 59.4301 46.1475 59.4301H22.9183C22.6448 59.4301 22.4231 59.2085 22.4231 58.935Z" fill="black"/>
<path d="M47.5994 78.023H21.4903V81.2836H47.5994V78.023Z" fill="#A5E2F2"/>
</g>
<defs>
<clipPath id="clip0_2_3">
<rect width="100" height="100" fill="white" transform="translate(8 14)"/>
</clipPath>
</defs>
</svg>
